HIERARCHY
ROOT Hips
{
	OFFSET 0.00000 0.00000 0.00000
	CHANNELS 6 Xposition Yposition Zposition Zrotation Yrotation Xrotation 
	JOINT LHipJoint
	{
		OFFSET 0 0 0
		CHANNELS 3 Zrotation Yrotation Xrotation
		JOINT LeftUpLeg
		{
			OFFSET 1.53794 -1.55850 0.93568
			CHANNELS 3 Zrotation Yrotation Xrotation
			JOINT LeftLeg
			{
				OFFSET 2.28545 -6.27922 0.00000
				CHANNELS 3 Zrotation Yrotation Xrotation
				JOINT LeftFoot
				{
					OFFSET 2.37329 -6.52057 0.00000
					CHANNELS 3 Zrotation Yrotation Xrotation
					JOINT LeftToeBase
					{
						OFFSET 0.14846 -0.40788 2.09160
						CHANNELS 3 Zrotation Yrotation Xrotation
						End Site
						{
							OFFSET 0.00000 -0.00000 1.07536
						}
					}
				}
			}
		}
	}
	JOINT RHipJoint
	{
		OFFSET 0 0 0
		CHANNELS 3 Zrotation Yrotation Xrotation
		JOINT RightUpLeg
		{
			OFFSET -1.78290 -1.55850 0.93568
			CHANNELS 3 Zrotation Yrotation Xrotation
			JOINT RightLeg
			{
				OFFSET -2.24144 -6.15831 0.00000
				CHANNELS 3 Zrotation Yrotation Xrotation
				JOINT RightFoot
				{
					OFFSET -2.35091 -6.45907 0.00000
					CHANNELS 3 Zrotation Yrotation Xrotation
					JOINT RightToeBase
					{
						OFFSET -0.14428 -0.39641 2.07944
						CHANNELS 3 Zrotation Yrotation Xrotation
						End Site
						{
							OFFSET -0.00000 -0.00000 1.06864
						}
					}
				}
			}
		}
	}
	JOINT LowerBack
	{
		OFFSET 0 0 0
		CHANNELS 3 Zrotation Yrotation Xrotation
		JOINT Spine
		{
			OFFSET -0.08841 2.11430 -0.15818
			CHANNELS 3 Zrotation Yrotation Xrotation
			JOINT Spine1
			{
				OFFSET -0.00033 2.12605 -0.08097
				CHANNELS 3 Zrotation Yrotation Xrotation
				JOINT Neck
				{
					OFFSET 0 0 0
					CHANNELS 3 Zrotation Yrotation Xrotation
					JOINT Neck1
					{
						OFFSET 0.04431 1.59447 0.43193
						CHANNELS 3 Zrotation Yrotation Xrotation
						JOINT Head
						{
							OFFSET 0.00455 1.62017 -0.58852
							CHANNELS 3 Zrotation Yrotation Xrotation
							End Site
							{
								OFFSET -0.00920 1.72955 -0.25850
							}
						}
					}
				}
				JOINT LeftShoulder
				{
					OFFSET 0 0 0
					CHANNELS 3 Zrotation Yrotation Xrotation
					JOINT LeftArm
					{
						OFFSET 2.86490 1.49927 -0.33774
						CHANNELS 3 Zrotation Yrotation Xrotation
						JOINT LeftForeArm
						{
							OFFSET 4.87408 -0.00000 0.00000
							CHANNELS 3 Zrotation Yrotation Xrotation
							JOINT LeftHand
							{
								OFFSET 2.76729 -0.00000 0.00000
								CHANNELS 3 Zrotation Yrotation Xrotation
								JOINT LeftFingerBase
								{
									OFFSET 0 0 0
									CHANNELS 3 Zrotation Yrotation Xrotation
									JOINT LeftHandIndex1
									{
										OFFSET 0.98922 -0.00000 0.00000
										CHANNELS 3 Zrotation Yrotation Xrotation
										End Site
										{
											OFFSET 0.79753 -0.00000 0.00000
										}
									}
								}
								JOINT LThumb
								{
									OFFSET 0 0 0
									CHANNELS 3 Zrotation Yrotation Xrotation
									End Site
									{
										OFFSET 0.80972 -0.00000 0.80972
									}
								}
							}
						}
					}
				}
				JOINT RightShoulder
				{
					OFFSET 0 0 0
					CHANNELS 3 Zrotation Yrotation Xrotation
					JOINT RightArm
					{
						OFFSET -2.94414 1.45463 -0.25291
						CHANNELS 3 Zrotation Yrotation Xrotation
						JOINT RightForeArm
						{
							OFFSET -4.71404 -0.00000 0.00000
							CHANNELS 3 Zrotation Yrotation Xrotation
							JOINT RightHand
							{
								OFFSET -2.83468 -0.00000 0.00000
								CHANNELS 3 Zrotation Yrotation Xrotation
								JOINT RightFingerBase
								{
									OFFSET 0 0 0
									CHANNELS 3 Zrotation Yrotation Xrotation
									JOINT RightHandIndex1
									{
										OFFSET -0.86820 -0.00000 0.00000
										CHANNELS 3 Zrotation Yrotation Xrotation
										End Site
										{
											OFFSET -0.69996 -0.00000 0.00000
										}
									}
								}
								JOINT RThumb
								{
									OFFSET 0 0 0
									CHANNELS 3 Zrotation Yrotation Xrotation
									End Site
									{
										OFFSET -0.71065 -0.00000 0.71065
									}
								}
							}
						}
					}
				}
			}
		}
	}
}
MOTION
Frames: 5
Frame Time: .0083333
1.7264 16.1199 9.4341 178.2460 4.6330 -155.9560 0.0000 0.0000 0.0000 -23.6939 -7.8102 -18.3131 5.7163 14.1477 43.8322 0.8154 9.1617 16.3863 0.0159 -0.8142 -2.2377 0.0000 0.0000 0.0000 18.7275 10.2885 -19.6992 -5.6335 -14.0635 43.4925 0.0192 -10.1843 6.8214 -2.5400 9.9103 -28.6866 -5.0698 -0.4485 3.3838 -1.4014 -0.6649 1.3985 1.4250 -0.3014 -0.4139 4.6254 0.0432 -31.6113 -1.1801 0.5442 39.9874 -0.9989 1.4972 21.6835 -0.0000 -0.0000 0.0000 -80.1632 -20.8412 44.7388 75.1377 -59.1487 -47.1656 -0.0000 -0.0000 25.4615 29.4453 28.4635 15.0587 -7.1250 0.0000 -0.0000 -1.3906 61.8787 -0.5711 -0.0000 -0.0000 0.0000 78.6700 17.7239 47.2259 -100.7231 59.5610 -69.2728 0.0000 0.0000 23.7292 -8.4934 -5.7996 0.8645 7.1250 -0.0000 -0.0000 15.1181 -35.4919 3.6366
1.7351 16.4165 9.0615 177.7990 4.2653 -156.5620 0.0000 0.0000 0.0000 -24.0938 -8.0624 -16.3875 5.3327 13.7490 42.2410 1.3154 8.0826 20.5147 0.0165 0.8301 2.2814 0.0000 0.0000 0.0000 18.4130 9.7384 -17.4339 -5.0482 -13.4379 41.0304 -0.4311 -11.0397 13.0936 -0.9890 6.3297 -17.7442 -5.2280 -0.5933 2.2112 -1.4763 -0.8096 1.0627 1.4303 -0.3813 -0.0928 4.7074 -0.2621 -30.9869 -1.3583 0.7296 41.2216 -1.0573 1.7554 23.0391 0.0000 0.0000 0.0000 -80.3858 -20.3124 46.4027 77.5026 -59.4015 -49.1987 -0.0000 -0.0000 24.4950 28.4059 29.1952 14.7785 -7.1250 0.0000 -0.0000 -2.9884 62.3814 -1.2631 0.0000 0.0000 0.0000 77.8146 17.1865 46.7941 -103.5123 59.2987 -71.6744 0.0000 0.0000 20.5165 -7.8058 -6.7491 0.9230 7.1250 -0.0000 -0.0000 15.8755 -36.3762 3.4753
1.7431 16.7180 8.7002 177.3850 3.8978 -156.9890 0.0000 0.0000 0.0000 -24.4663 -8.4457 -15.1100 5.1658 13.5682 41.5343 1.7371 7.6138 23.6236 0.0473 1.4029 3.8581 0.0000 0.0000 0.0000 18.1086 9.6534 -15.6768 -4.6489 -12.9771 39.2829 -1.0600 -12.8947 19.2219 -0.0071 0.5445 -1.4961 -5.3025 -0.7258 1.1106 -1.5990 -0.9315 0.6988 1.3365 -0.4440 0.1567 4.8211 -0.5688 -30.2569 -1.5264 0.9138 42.5008 -1.0674 2.0010 23.9223 0.0000 0.0000 0.0000 -80.4671 -19.7219 48.1689 79.5682 -59.5848 -50.9784 -0.0000 -0.0000 23.5906 25.8445 29.8080 13.5381 -7.1250 0.0000 -0.0000 -6.3929 62.3478 -2.7017 0.0000 0.0000 0.0000 76.9987 16.5407 46.2490 -106.4608 58.9510 -74.2053 0.0000 0.0000 17.5218 -7.1451 -7.7387 0.9670 7.1250 -0.0000 -0.0000 16.6395 -37.2917 3.2668
1.7503 17.0215 8.3526 177.0530 3.5594 -157.2340 0.0000 0.0000 0.0000 -24.7670 -8.8340 -14.5360 5.2167 13.6237 41.7505 2.0291 7.5158 25.5988 0.0280 1.0801 2.9693 0.0000 0.0000 0.0000 17.8770 9.8876 -14.4819 -4.4339 -12.7164 38.3159 -1.8187 -15.2786 24.9191 -0.6537 -5.1715 14.3983 -5.2840 -0.8224 0.0605 -1.7398 -0.9999 0.3400 1.1701 -0.4763 0.3783 4.8831 -0.8674 -29.5751 -1.5968 1.0443 43.5320 -1.0292 2.2153 24.6559 -0.0000 -0.0000 0.0000 -80.4743 -19.1313 49.7108 81.5742 -59.7300 -52.7097 -0.0000 -0.0000 22.7777 22.0091 29.7938 11.3564 -7.1250 0.0000 -0.0000 -10.8404 61.3542 -4.3454 -0.0000 -0.0000 0.0000 76.2080 15.7744 45.5951 -109.5079 58.5121 -76.8099 0.0000 0.0000 14.7600 -6.5355 -8.7614 0.9997 7.1250 -0.0000 -0.0000 17.3904 -38.2332 3.0069
1.7570 17.3227 8.0212 176.8270 3.2414 -157.3270 0.0000 0.0000 0.0000 -24.9560 -9.1673 -14.6412 5.4764 13.9010 42.8424 2.1887 7.6606 26.6161 0.0013 0.2333 0.6410 0.0000 0.0000 0.0000 17.7514 10.2246 -13.8626 -4.3900 -12.6621 38.1163 -2.5900 -17.4042 29.7070 -1.6254 -8.0378 22.8290 -5.1849 -0.8816 -0.9152 -1.8625 -1.0188 0.0111 0.9774 -0.4822 0.5849 4.9017 -1.1239 -29.0154 -1.6056 1.1269 44.2909 -0.9670 2.3821 25.2068 0.0000 0.0000 0.0000 -80.4660 -18.5568 50.8868 83.4362 -59.8366 -54.3187 -0.0000 -0.0000 22.2992 17.9596 28.1751 8.7015 -7.1250 0.0000 -0.0000 -14.2882 58.7887 -4.8791 0.0000 0.0000 0.0000 75.4243 14.8639 44.9557 -112.4663 58.0042 -79.3260 0.0000 0.0000 12.2388 -5.9852 -9.7946 1.0218 7.1250 -0.0000 -0.0000 18.1168 -39.1800 2.7024
